<svg xmlns="http://www.w3.org/2000/svg" width="512" height="512" viewBox="0 0 512 512">
  <defs>
    <linearGradient id="bgGradient" x1="0%" y1="0%" x2="100%" y2="100%">
      <stop offset="0%" style="stop-color:#f0f4ff;stop-opacity:1" />
      <stop offset="100%" style="stop-color:#e8edf5;stop-opacity:1" />
    </linearGradient>
    <linearGradient id="printerBody" x1="0%" y1="0%" x2="0%" y2="100%">
      <stop offset="0%" style="stop-color:#4a90e2;stop-opacity:1" />
      <stop offset="100%" style="stop-color:#357abd;stop-opacity:1" />
    </linearGradient>
    <filter id="softShadow" x="-20%" y="-20%" width="140%" height="140%">
      <feDropShadow dx="0" dy="8" stdDeviation="12" flood-color="#000000" flood-opacity="0.08"/>
    </filter>
    <filter id="innerGlow" x="-10%" y="-10%" width="120%" height="120%">
      <feDropShadow dx="0" dy="2" stdDeviation="4" flood-color="#ffffff" flood-opacity="0.3"/>
    </filter>
  </defs>
  
  <!-- Background with subtle gradient -->
  <rect width="512" height="512" rx="100" fill="url(#bgGradient)"/>
  
  <!-- Subtle decorative circles for visual interest -->
  <circle cx="420" cy="90" r="60" fill="#4a90e2" opacity="0.06"/>
  <circle cx="90" cy="420" r="45" fill="#4a90e2" opacity="0.04"/>
  <circle cx="400" cy="400" r="35" fill="#5ba8f5" opacity="0.05"/>
  
  <!-- Printer body with modern gradient and shadow -->
  <g filter="url(#softShadow)">
    <rect x="100" y="180" width="312" height="200" rx="24" fill="url(#printerBody)"/>
  </g>
  
  <!-- Paper input tray - elevated with shadow -->
  <g filter="url(#softShadow)">
    <rect x="150" y="90" width="212" height="140" rx="16" fill="#ffffff"/>
    <rect x="150" y="90" width="212" height="140" rx="16" fill="url(#innerGlow)"/>
  </g>
  
  <!-- Paper output tray -->
  <g filter="url(#softShadow)">
    <rect x="130" y="310" width="252" height="130" rx="16" fill="#ffffff"/>
  </g>
  
  <!-- Paper details - subtle gray lines -->
  <rect x="175" y="335" width="180" height="12" rx="6" fill="#c8d6e5"/>
  <rect x="175" y="360" width="140" height="12" rx="6" fill="#c8d6e5"/>
  <rect x="175" y="385" width="160" height="12" rx="6" fill="#c8d6e5"/>
  
  <!-- Paper input lines - lighter -->
  <rect x="175" y="135" width="150" height="8" rx="4" fill="#e8edf5"/>
  <rect x="175" y="155" width="120" height="8" rx="4" fill="#e8edf5"/>
  <rect x="175" y="175" width="130" height="8" rx="4" fill="#e8edf5"/>
  
  <!-- Status indicator with modern design -->
  <circle cx="380" cy="240" r="14" fill="#4cd964"/>
  <circle cx="380" cy="240" r="10" fill="#5ae070"/>
  
  <!-- Power button accent -->
  <rect x="370" y="265" width="20" height="8" rx="4" fill="#ffffff" opacity="0.8"/>
</svg>